{"title":"Noorie 1979 DvDrip ~ Drama | Romance | Musical ~ [RdY]","uid":6647123,"size":1559763324,"categoryP":"video","categoryS":"movies","magnet":"?xt=urn:btih:7ad88a4c13cf8e46f1689a5c12c0e5d7bc916632&amp;dn=Noorie+1979+DvDrip+%7E+Drama+%7C+Romance+%7C+Musical+%7E+%5BRdY%5D&amp;tr=udp%3A%2F%2Ftracker.openbittorrent.com%3A80&amp;tr=udp%3A%2F%2Fopen.demonii.com%3A1337&amp;tr=udp%3A%2F%2Ftracker.coppersurfer.tk%3A6969&amp;tr=udp%3A%2F%2Fexodus.desync.com%3A6969","seeders":0,"leechers":0,"uploader":"ilyas2000pk","files":-1,"time":1314988927,"description":"Color\nC\n\nRelease Date\nJune 1, 1979\n\nGenre\nMusical  /  Drama  /  Romance\n\nProducer\nYash Chopra\n\nDirector\nManmohan Krishna\n\nStar Cast\nFarooq Sheikh...... Yusuf Fakir Mohammed\nPoonam Dhillon...... Noorie Nabi\nMadan Puri...... Lala Karamchand\nIftekhar...... Ghulam Nabi\nBharat Kapoor...... Basheer Khan\nManmohan Krishan...... Saiji\nAvtar Gill...... Basheer's friend\nGita Siddharth...... Karamchand's daughter-in-law\nPadma Khanna...... Courtesan\nJaved Khan...... Faulad Khan\nVikas Anand\nPardesi\n\nCassettes and CD's on\nSaregama-HMV\n\nSingers\nGunjan\nAsha Bhosle\nPamela Chopra\nMahendra Kapoor\nLata Mangeshkar\nNitin Mukesh\n\nLyricist\nJan Nissar Akhtar\nNaqsh Lyallpuri\n\nMusic Director\nKhayyam\n\nNoorie 1979 DvDrip ~ Drama | Romance | Musical ~ [RdY]\nFormat                           : AVI\nFormat/Info                      : Audio Video Interleave\nFile size                        : 1.45 GiB\nDuration                         : 1h 55mn\nOverall bit rate                 : 1 803 Kbps\n\nVideo\nID                               : 0\nFormat                           : MPEG-4 Visual\nFormat profile                   : Advanced Simple@L5\nFormat settings, BVOP            : 2\nFormat settings, QPel            : Yes\nFormat settings, GMC             : No warppoints\nFormat settings, Matrix          : Default (H.263)\nCodec ID                         : XVID\nCodec ID/Hint                    : XviD\nDuration                         : 1h 55mn\nBit rate                         : 1 346 Kbps\nWidth                            : 656 pixels\nHeight                           : 480 pixels\nDisplay aspect ratio             : 4:3\nFrame rate                       : 29.970 fps\nColor space                      : YUV\nChroma subsampling               : 4.2.0\nBit depth                        : 8 bits\nScan type                        : Progressive\nCompression mode                 : Lossy\nBits/(Pixel*Frame)               : 0.143\nStream size                      : 1.08 GiB (75%)\nWriting library                  : XviD 1.2.1 (UTC 2008-12-04)\n\nAudio\nID                               : 1\nFormat                           : AC-3\nFormat/Info                      : Audio Coding 3\nMode extension                   : CM (complete main)\nCodec ID                         : 2000\nDuration                         : 1h 55mn\nBit rate mode                    : Constant\nBit rate                         : 448 Kbps\nChannel(s)                       : 6 channels\nChannel positions                : Front: L C R, Side: L R, LFE\nSampling rate                    : 48.0 KHz\nBit depth                        : 16 bits\nCompression mode                 : Lossy\nStream size                      : 370 MiB (25%)\nAlignment                        : Aligned on interleaves\nInterleave, duration             : 64 ms (1.92 video frames)\n","torrent":{"xt":"urn:btih:7ad88a4c13cf8e46f1689a5c12c0e5d7bc916632","amp;dn":"Noorie+1979+DvDrip+%7E+Drama+%7C+Romance+%7C+Musical+%7E+%5BRdY%5D","amp;tr":["udp%3A%2F%2Ftracker.openbittorrent.com%3A80","udp%3A%2F%2Fopen.demonii.com%3A1337","udp%3A%2F%2Ftracker.coppersurfer.tk%3A6969","udp%3A%2F%2Fexodus.desync.com%3A6969"],"infoHash":"7ad88a4c13cf8e46f1689a5c12c0e5d7bc916632","infoHashBuffer":{"type":"Buffer","data":[122,216,138,76,19,207,142,70,241,104,154,92,18,192,229,215,188,145,102,50]},"announce":[],"urlList":[]}}